Coordinates
version=1
nRows=13
nColumns=38
inDegrees=no

Units are S.I. units (second, meters, Newtons, ...)
If the header above contains a line with 'inDegrees', this indicates whether rotational values are in degrees (yes) or radians (no).

endheader
time	pelvis_tilt	pelvis_list	pelvis_rotation	pelvis_tx	pelvis_ty	pelvis_tz	hip_flexion_r	hip_adduction_r	hip_rotation_r	knee_angle_r	ankle_angle_r	subtalar_angle_r	mtp_angle_r	hip_flexion_l	hip_adduction_l	hip_rotation_l	knee_angle_l	ankle_angle_l	subtalar_angle_l	mtp_angle_l	lumbar_extension	lumbar_bending	lumbar_rotation	arm_flex_r	arm_add_r	arm_rot_r	elbow_flex_r	pro_sup_r	wrist_flex_r	wrist_dev_r	arm_flex_l	arm_add_l	arm_rot_l	elbow_flex_l	pro_sup_l	wrist_flex_l	wrist_dev_l
0	1.65799	1.47395	-0.102047	0.816007	-0.399712	0.973403	-0.0391455	0.0850429	-0.228406	0.13825	0.0905769	0	0	-0.119928	-0.0786406	-0.207015	0	0.0650215	0	0	-0.0209018	0.104588	-0.0130843	-0.0251773	-0.140988	0.0456686	0.369209	1.5708	0	0	-0.0856717	-0.201807	0.490859	0.600695	0.803481	0	0
0.01	1.65578	1.47438	-0.100217	0.816121	-0.399669	0.973438	-0.0385908	0.0845701	-0.228805	0.139015	0.0910815	0	0	-0.119295	-0.0783572	-0.206815	0	0.0651165	0	0	-0.0200802	0.10392	-0.0117656	-0.0203892	-0.135204	0.0231637	0.351633	1.5708	0	0	-0.0863274	-0.201762	0.496255	0.599464	0.80728	0	0
0.02	1.66223	1.4743	-0.107094	0.816234	-0.399633	0.97348	-0.0389041	0.0844691	-0.229527	0.139928	0.0917426	0	0	-0.119947	-0.0784491	-0.206558	0	0.0651871	0	0	-0.020455	0.104019	-0.0100539	-0.0200215	-0.13365	0.0126247	0.345376	1.5708	0	0	-0.0871955	-0.20092	0.497719	0.598841	0.810453	0	0
0.03	1.68102	1.51152	-0.107831	0.814711	-0.398739	0.971999	-0.0585287	0.0550394	-0.213684	0.104234	0.0955646	0	0	-0.118433	-0.0418315	-0.213963	0	0.0535643	0	0	-0.0130009	0.0609575	-0.0281074	-0.022849	-0.124218	0.00664866	0.340305	1.5708	0	0	-0.094635	-0.2109	0.490382	0.611618	0.808297	0	0
0.04	1.67608	1.4774	-0.122013	0.816684	-0.399453	0.973259	-0.032992	0.0812921	-0.253883	0.162132	0.109278	0	0	-0.121612	-0.0752418	-0.205552	0	0.0647385	0	0	-0.0205543	0.100187	-0.0070818	-0.0209743	-0.131054	0.00453153	0.33965	1.5708	0	0	-0.0910834	-0.200583	0.489683	0.6037	0.807795	0	0
0.05	1.58244	1.48559	-0.0306407	0.816681	-0.399615	0.972556	-0.00201269	0.0619428	-0.297394	0.210351	0.135567	0	0	-0.105903	-0.069054	-0.213605	0.00399282	0.0714637	0	0	-0.00978849	0.089689	-0.00464917	-0.00396525	-0.107458	-0.0785901	0.29151	1.5708	0	0	-0.0941236	-0.201119	0.490067	0.603786	0.809341	0	0
0.06	1.58763	1.48673	-0.0364681	0.81663	-0.399674	0.972313	0.00165028	0.0585684	-0.305614	0.220041	0.142242	0	0	-0.106258	-0.0674831	-0.214614	0.00421967	0.0724911	0	0	-0.0102154	0.0914464	-0.00136196	-0.0150713	-0.1217	-0.0566042	0.311936	1.5708	0	0	-0.093481	-0.198792	0.487686	0.603615	0.808012	0	0
0.07	1.58924	1.48681	-0.0381386	0.816606	-0.39962	0.97227	0.00227638	0.0584583	-0.306195	0.221813	0.143267	0	0	-0.106707	-0.0672238	-0.214868	0.00371177	0.0725187	0	0	-0.0100713	0.0919005	-0.000807446	-0.0225852	-0.12733	-0.0245706	0.326766	1.5708	0	0	-0.0950891	-0.196777	0.482227	0.604232	0.806779	0	0
0.08	1.5391	1.48765	0.0125253	0.816792	-0.399476	0.972212	0.00658171	0.0585585	-0.304302	0.221237	0.142261	0	0	-0.102097	-0.0666187	-0.213879	0.00381803	0.0714175	0	0	-0.00412605	0.0881918	-0.000768543	0.00375837	-0.0988507	-0.15802	0.259334	1.5708	0	0	-0.0976572	-0.196581	0.479137	0.604105	0.808789	0	0
0.09	1.59366	1.4862	-0.0424045	0.816612	-0.399461	0.972227	0.0017344	0.0598506	-0.303385	0.221523	0.142991	0	0	-0.108191	-0.0674992	-0.214767	0.00178027	0.0720233	0	0	-0.0097086	0.0934157	-0.000420828	-0.0283079	-0.130889	-0.00644147	0.334489	1.5708	0	0	-0.0987272	-0.193707	0.475587	0.604611	0.81208	0	0
0.1	1.59858	1.48611	-0.0462762	0.816582	-0.399414	0.972218	0.00137318	0.0600262	-0.303922	0.221867	0.143075	0	0	-0.108855	-0.0675463	-0.213842	0.00109609	0.0718569	0	0	-0.00980503	0.0937546	-0.00108248	-0.029757	-0.131369	-0.00457417	0.335234	1.5708	0	0	-0.0999776	-0.192951	0.475096	0.60478	0.81279	0	0
0.11	1.5384	1.48757	0.0151193	0.816796	-0.399243	0.97215	0.00697026	0.0589883	-0.304562	0.222437	0.142464	0	0	-0.103125	-0.0664788	-0.212259	0.00138205	0.0705335	0	0	-0.00270601	0.0883294	-0.00137362	-0.00161848	-0.0960194	-0.168539	0.262293	1.5708	0	0	-0.101807	-0.193834	0.474687	0.604333	0.815096	0	0
0.12	1.60865	1.48628	-0.0546666	0.816595	-0.399305	0.972223	0.000845303	0.0598524	-0.305944	0.223092	0.143726	0	0	-0.110233	-0.0673498	-0.212705	0	0.0713229	0	0	-0.0100399	0.0937621	-0.00202502	-0.0321454	-0.131198	-0.00576714	0.335207	1.5708	0	0	-0.102187	-0.191243	0.470857	0.605054	0.817103	0	0
